<svg xmlns="http://www.w3.org/2000/svg" viewBox="0 0 512 512" width="24" height="24">
  <defs>
    <radialGradient id="a" cx="19.38%" cy="96.74%" r="108.96%">
      <stop offset="0%" stop-color="#ffdd55"/>
      <stop offset="25%" stop-color="#ff543e"/>
      <stop offset="50%" stop-color="#c837ab"/>
      <stop offset="75%" stop-color="#8134af"/>
      <stop offset="100%" stop-color="#515bd4"/>
    </radialGradient>
  </defs>
  <path fill="url(#a)" d="M512 256c0 141.4-114.6 256-256 256S0 397.4 0 256 114.6 0 256 0s256 114.6 256 256z"/>
  <path fill="#fff" d="M256 109c47.4 0 53 .2 71.8 1 17.3.8 26.7 3.7 33 6.1 8.3 3.2 14.2 7.1 20.4 13.3s10.1 12.1 13.3 20.4c2.4 6.3 5.3 15.7 6.1 33 .8 18.8 1 24.4 1 71.8s-.2 53-1 71.8c-.8 17.3-3.7 26.7-6.1 33-3.2 8.3-7.1 14.2-13.3 20.4s-12.1 10.1-20.4 13.3c-6.3 2.4-15.7 5.3-33 6.1-18.8.8-24.4 1-71.8 1s-53-.2-71.8-1c-17.3-.8-26.7-3.7-33-6.1-8.3-3.2-14.2-7.1-20.4-13.3s-10.1-12.1-13.3-20.4c-2.4-6.3-5.3-15.7-6.1-33-.8-18.8-1-24.4-1-71.8s.2-53 1-71.8c.8-17.3 3.7-26.7 6.1-33 3.2-8.3 7.1-14.2 13.3-20.4s12.1-10.1 20.4-13.3c6.3-2.4 15.7-5.3 33-6.1 18.8-.8 24.4-1 71.8-1m0-32c-48.3 0-54.4.2-73.4 1.1-19 .9-32 4-43.4 8.5-11.8 4.6-21.7 10.7-31.7 20.6S97.8 125.8 93.2 137.6c-4.5 11.4-7.6 24.4-8.5 43.4-.9 19-1.1 25.1-1.1 73.4s.2 54.4 1.1 73.4c.9 19 4 32 8.5 43.4 4.6 11.8 10.7 21.7 20.6 31.7s19.9 16 31.7 20.6c11.4 4.5 24.4 7.6 43.4 8.5 19 .9 25.1 1.1 73.4 1.1s54.4-.2 73.4-1.1c19-.9 32-4 43.4-8.5 11.8-4.6 21.7-10.7 31.7-20.6s16-19.9 20.6-31.7c4.5-11.4 7.6-24.4 8.5-43.4.9-19 1.1-25.1 1.1-73.4s-.2-54.4-1.1-73.4c-.9-19-4-32-8.5-43.4-4.6-11.8-10.7-21.7-20.6-31.7s-19.9-16-31.7-20.6c-11.4-4.5-24.4-7.6-43.4-8.5-19-.9-25.1-1.1-73.4-1.1z"/>
  <path fill="#fff" d="M256 164.1c-50.7 0-91.9 41.1-91.9 91.9s41.1 91.9 91.9 91.9 91.9-41.1 91.9-91.9-41.1-91.9-91.9-91.9zm0 151.5c-32.9 0-59.6-26.7-59.6-59.6s26.7-59.6 59.6-59.6 59.6 26.7 59.6 59.6-26.7 59.6-59.6 59.6z"/>
  <circle fill="#fff" cx="351.5" cy="160.5" r="21.5"/>
</svg>