<svg xmlns="http://www.w3.org/2000/svg" viewBox="0 0 512 512" width="24" height="24">
  <path fill="#25D366" d="M512 256c0 141.4-114.6 256-256 256S0 397.4 0 256 114.6 0 256 0s256 114.6 256 256z"/>
  <path fill="#fff" d="M413.3 256c0 86.8-70.5 157.3-157.3 157.3-27.4 0-53.2-7-75.6-19.3L98.7 413.3l19.3-81.7c-12.3-22.4-19.3-48.2-19.3-75.6C98.7 169.2 169.2 98.7 256 98.7S413.3 169.2 413.3 256zm-157.3 98.7c54.5 0 98.7-44.2 98.7-98.7s-44.2-98.7-98.7-98.7-98.7 44.2-98.7 98.7c0 18.1 4.9 35.1 13.4 49.7l-8.8 32.2 32.2-8.8c14.6 8.5 31.6 13.4 49.7 13.4h12.2z"/>
  <path fill="#25D366" d="M318.2 276.5c-3.6-1.8-21.3-10.5-24.6-11.7s-5.7-1.8-8.1 1.8-9.3 11.7-11.4 14.1-4.2 2.7-7.8.9-15.2-5.6-28.9-17.8c-10.7-9.5-17.9-21.3-20-24.9s-.2-5.5 1.6-7.3c1.6-1.6 3.6-4.2 5.4-6.3s2.4-3.6 3.6-6c1.2-2.4.6-4.5-.3-6.3s-8.1-19.5-11.1-26.7c-2.9-7-5.9-6-8.1-6.1-2.1-.1-4.5-.1-6.9-.1s-6.3.9-9.6 4.5-12.6 12.3-12.6 30s12.9 34.8 14.7 37.2 25.4 38.8 61.5 54.4c8.6 3.7 15.3 5.9 20.5 7.6 8.6 2.7 16.4 2.3 22.6 1.4 6.9-1 21.3-8.7 24.3-17.1s3-15.6 2.1-17.1-3.3-2.4-6.9-4.2z"/>
</svg>