<svg xmlns="http://www.w3.org/2000/svg" viewBox="0 0 512 512" width="24" height="24">
  <path fill="#FF0000" d="M512 256c0 141.4-114.6 256-256 256S0 397.4 0 256 114.6 0 256 0s256 114.6 256 256z"/>
  <path fill="#fff" d="M449.4 190.7c-5.2-19.5-20.5-34.8-40-40C379.8 144 256 144 256 144s-123.8 0-153.4 6.7c-19.5 5.2-34.8 20.5-40 40C56 220.3 56 256 56 256s0 35.7 6.6 65.3c5.2 19.5 20.5 34.8 40 40C132.2 368 256 368 256 368s123.8 0 153.4-6.7c19.5-5.2 34.8-20.5 40-40C456 291.7 456 256 456 256s0-35.7-6.6-65.3z"/>
  <path fill="#FF0000" d="M216 304V208l104 48-104 48z"/>
</svg>